/* XPM */
static char * collect_XPM[] = {
"64 64 205 2",
"  	c #412B1D",
". 	c #3D291B",
"+ 	c #7DFD4A",
"@ 	c #63F942",
"# 	c #59E93E",
"$ 	c #5BF13F",
"% 	c #72FC47",
"& 	c #96FE54",
"* 	c #A0FE58",
"= 	c #53D73F",
"- 	c #53C53F",
"; 	c #53BC40",
"> 	c #54C040",
", 	c #5DCC46",
"' 	c #55E33E",
") 	c #57F13D",
"! 	c #8DFE51",
"~ 	c #52CB40",
"{ 	c #5CBF45",
"] 	c #65C549",
"^ 	c #68D64B",
"/ 	c #64E247",
"( 	c #6CEE51",
"_ 	c #56EE41",
": 	c #56F942",
"< 	c #67FA42",
"[ 	c #53CF3F",
"} 	c #72CE57",
"| 	c #80F042",
"1 	c #86F761",
"2 	c #61FB4D",
"3 	c #5CFB41",
"4 	c #7EE15B",
"5 	c #B1FD5C",
"6 	c #97FC6B",
"7 	c #8BFD7C",
"8 	c #96FA8A",
"9 	c #6CFD57",
"0 	c #6EFE46",
"a 	c #87C55D",
"b 	c #71E053",
"c 	c #77EC59",
"d 	c #D3FF68",
"e 	c #C3FA98",
"f 	c #D0F5B2",
"g 	c #DEFCBC",
"h 	c #DCF9CB",
"i 	c #BFFEB7",
"j 	c #8CE362",
"k 	c #E7FCA7",
"l 	c #F2FED5",
"m 	c #EAFDCC",
"n 	c #E7FCC4",
"o 	c #E9FFDD",
"p 	c #CEFFC2",
"q 	c #AFF876",
"r 	c #E3FC92",
"s 	c #F1FEE6",
"t 	c #7FFE6B",
"u 	c #53DE3F",
"v 	c #A1FA75",
"w 	c #BAF998",
"x 	c #E6FCB2",
"y 	c #D9F6A0",
"z 	c #D5EFCA",
"A 	c #5AF73E",
"B 	c #A8F790",
"C 	c #D4F1BE",
"D 	c #CDEBB2",
"E 	c #B0FC9E",
"F 	c #77F654",
"G 	c #FFFFFF",
"H 	c #565734",
"I 	c #5C5A4B",
"J 	c #7D7874",
"K 	c #7A7575",
"L 	c #817C7A",
"M 	c #8E8B8C",
"N 	c #767474",
"O 	c #615D5D",
"P 	c #3D393A",
"Q 	c #C9F19C",
"R 	c #A4FB96",
"S 	c #7FCE4A",
"T 	c #757748",
"U 	c #919177",
"V 	c #D0CCBD",
"W 	c #E3DDD5",
"X 	c #E2DBDB",
"Y 	c #E3DDDD",
"Z 	c #F0EEED",
"` 	c #FDFDFD",
" .	c #F4F3F2",
"..	c #CAC5C3",
"+.	c #B3B1A7",
"@.	c #C7C2BA",
"#.	c #A9A3A2",
"$.	c #B8EEA6",
"%.	c #F9FCF2",
"&.	c #ABC783",
"*.	c #E3DFC8",
"=.	c #E2DDD1",
"-.	c #E0D9D8",
";.	c #E0D9D9",
">.	c #E2E0E0",
",.	c #FAFAFA",
"'.	c #D1CECD",
").	c #C2C0B4",
"!.	c #D4C9C8",
"~.	c #A59B99",
"{.	c #E8E4E3",
"].	c #A7A59B",
"^.	c #BCBAAF",
"/.	c #D1C6C6",
"(.	c #999594",
"_.	c #322E2F",
":.	c #85B760",
"<.	c #A8A78B",
"[.	c #D5D2C1",
"}.	c #B2B0AF",
"|.	c #CBC3C0",
"1.	c #958F8F",
"2.	c #68AA49",
"3.	c #97967B",
"4.	c #8D8C76",
"5.	c #F9F8F7",
"6.	c #C5C0C0",
"7.	c #929089",
"8.	c #221F20",
"9.	c #57D741",
"0.	c #899D63",
"a.	c #B8B894",
"b.	c #AEABA1",
"c.	c #D8D6D6",
"d.	c #C4C2B6",
"e.	c #4F4B4B",
"f.	c #1B1919",
"g.	c #B9B2B1",
"h.	c #EAE8E7",
"i.	c #EDEAEA",
"j.	c #84817A",
"k.	c #726F6E",
"l.	c #282525",
"m.	c #0C0A0B",
"n.	c #000000",
"o.	c #7CFA4A",
"p.	c #9DC473",
"q.	c #BBBD92",
"r.	c #9D9C90",
"s.	c #FFFFFA",
"t.	c #BAB6B7",
"u.	c #464242",
"v.	c #110F0F",
"w.	c #030203",
"x.	c #84AB5D",
"y.	c #D6D3D0",
"z.	c #818080",
"A.	c #B0AAAA",
"B.	c #0E0D0D",
"C.	c #636256",
"D.	c #A1A182",
"E.	c #AFAF8B",
"F.	c #6D6968",
"G.	c #C6C2B7",
"H.	c #C1B7B6",
"I.	c #302C2D",
"J.	c #030202",
"K.	c #383533",
"L.	c #070606",
"M.	c #282424",
"N.	c #5F5C5B",
"O.	c #DED9D1",
"P.	c #B7B5A2",
"Q.	c #686564",
"R.	c #433F3F",
"S.	c #5D5958",
"T.	c #898681",
"U.	c #3B3838",
"V.	c #A3878D",
"W.	c #7D4A53",
"X.	c #944F5F",
"Y.	c #9B646E",
"Z.	c #9A717B",
"`.	c #5C5656",
" +	c #B94463",
".+	c #A33F59",
"++	c #AD3D5C",
"@+	c #484445",
"#+	c #C84167",
"$+	c #DC3B6D",
"%+	c #FC3E7B",
"&+	c #A6546D",
"*+	c #565253",
"=+	c #050404",
"-+	c #A45971",
";+	c #4E4C4C",
">+	c #C0BBBC",
",+	c #9E9C9C",
"'+	c #231F20",
")+	c #DBDADA",
"!+	c #221E1F",
"~+	c #7F7D7E",
"{+	c #868484",
"]+	c #706E6F",
"^+	c #696767",
"    .           . . .       .         .       .                                           . .         .                     . . ",
".           . .       . . .           . .     .                                     . .                 . .                 . . ",
".     . . .           + @ # # $ @ % &   . . . . .               .                 .                                         . . ",
"        .         * @ = - ; > , = ' ) @ !     . . .     . .                   . .                                       .       ",
"          .       $ ~ ; { ] , ^ / ' ( _ : < *                               .                                                   ",
"          .     < [ { ] } ^ ^ / | | 1 : : 2 3 +   . . .       .         . . .                                             . .   ",
". .         . . # ] { ; , 4 / ( ( 5 6 7 8 8 7 9 0       . .           .       . .                           .                 . ",
"  . .       . . ' { a ] ~ b c _ 1 d e f g h h i 7 @ *       .       .     .       . .         . .                               ",
"      . .   .   # ; ] j 4 b 1 : 5 k l l m n m o p 7 3 &         . .               . .                         .             .   ",
"  .     . .     @ - ; , j q q 6 r k m n f f m s h i t 3 !   . .   . .           .                                           .   ",
"    .     . .   ! u > [ u c v w x y r k x f z z x k q 2 A ! .         .               .                                         ",
". .           .   < = [ u ( v B y g k m h C D l l o E F A A !           . .         .                         .               . ",
"  .             . . $ = u ( 6 e k g y h z D k s G s E 2 _ ' A !     H I J J K K K K K K K K K K L M M M M M M N O P . .   . .   ",
"  .             .   & 3 ' ( 1 e Q Q C C C f m l G o R 2 _ u = $ S T U V W W X X X X X X X X Y Z ` G G G G  ...+.@.#.P           ",
"  .                   ! 3 _ : 6 $.f C Q Q m x m %.p 7 : ( / [ [ ' &.*.*.=.=.-.-.-.;.;.;.;.>. .G G G G ,.'.#.+.).@.!.~.P         ",
". .             .       & 3 : 2 8 $.D Q x m n o p E t F ( / ^ > [ F D *.=.=.-.-.-.;.;.;.{.,.G G G G >.#.].^.).).@./.!.(._.      ",
"    .       .   .         * @ : 2 8 i f g s n f w B 7 ( u [ , { { u :.<.[.=.-.-.-.-.Y Z ` G G G Z }.(.+.).).).).|./././.1._.  . ",
"    . .         .             0 : 2 t 8 w E R R 7 1 1 c = ~ > ; ; u 2.3.4.[.-.-.-.{.5.G G G ,.6.7.].).).).).).).|./././.!.L 8.  ",
"        . .     . . .         . + 3 : 2 1 v 9 : _ _ / j , > ; ; [ 9.0.a.U b.X Y Z ` G G G c.1.7.^.d.).).).).).@././././.~.e.f.  ",
"      . . . . .       . . . .     * @ : _ F 1 _ ' u 9.^ } ; ; = / :.a.a.4.g.h.5.G G G i.#.j.b.).).).).).).).).|./.!.g.k.l.m.n.  ",
"    . .                 . . .         o.) _ / b = [ ~ - , 9.' b p.q.a.U r.Z s.G G 5.t.J 7.^.).).).).).).).).@./.|.1.u.v.w.      ",
"        .           .     . .         T x.4 ' _ ' ' ' u / b p.q.q.<.4.+. .s.G G y.z.L +.d.).).).).).).).).d./.A.O f.B.          ",
"        .             .     .     H C.D.[.).0.:.:.a a p.&.q.q.E.U r.y.s.s.G h.(.F.r.).).).).).).).).).).G.H.L I.v.J.            ",
"          .             .   . . K.J G.*.*.*.E.3.E.a.q.a.E.D.U r.[.%.s.G 5.}.F.j.^.d.).).).).).).).).).).(.e.f.L.        . .     ",
"        . .           . . . M.N.A.O.W =.=.*.*.P.3.U 4.4.3.P.=.%.s.s.s.'.N F.].d.).).).).).).).).).d.b.Q.l.m.n.              .   ",
"  .   . . . . . .   . . . R.M g.|.'.O.W W W =.=.O.[.V O.Z s.s.s.G {.M S.7.).d.).).).).).).).).d.^.T.U.v.w..                   . ",
"      .         . . . K.K g.V.W.X.Y.Z.V.~.g.|.y.O.W h.%.s.s.G  .A.S.k.+.d.).).).).).).).).).).~.`.f.L.  . .                   . ",
"      .           M.N.A.g.Y. +.+++ + +++++.+X.X.J '.s.s.G G '.k.S.r.).).).).).).).).).).d.+.k.I.m.J.    .                   .   ",
"  . .   . . . . @+(.'.1.X.#+$+%+%+%+%+%+%+%+$+&+t.5.G G h.1.*+T.^.d.).).).).).).).).d.^.7.u.f.=+                        . . .   ",
". .         M.k...Y -.g.~.Z.-+ +#+$+%+%+%+#+V.>.G G 5.g.O F.b.d.).).).).).).).).).d.].O l.B.. .                   . . . .     . ",
"  . .       Q.y.Y ;.;.X X ;.y.6.A.V.Z.&+-+H.,.G G c.N S.r.).).).).).).).).).).d.^.L U.v.J.          .       . . . .             ",
". . .     K.g.c./.'.-.Y X ;.;.X X X >.h.Z G G i.(.*+j.^.d.).).).).).).).).).).r.e.f.L..             . .                       . ",
"          @+L S.;+*+F.1.>+-.;.;.;.h.,.G G ` >+O Q.b.d.).).).).).).).).).d.b.Q.l.m.n.  .           .           .             . . ",
"        . l.;+k.N N O U.F.,+-.;.i.` G G ` ,+`.~.@.d.).).).).).).).).d.^.T.U.v.w.. .             .               .         . .   ",
"        . ;+z.z.z.z.z.Q.S.z.t.i.` G G G }.S.g.!./.|.|.@.G.d.d.G.@.@.#.`.f.L.. . . . . .       . .                               ",
"        '+O z.z.z.z.z.K ;+T.A.G G G G Z O #.!./././././././././.H.K I.m.n..           . . . . .                           .     ",
"          u.z.z.z.z.z.Q.*+L )+G G G G c.O |./././././././.!.|.1.u.v.=+  .               . .     .     . .     . .               ",
"      .   8.;+F.N k.S.U.Q.t.` G G G G h.S.#.!././././.!./.#.`.f.B.      .                   .                 .                 ",
"          M.Q.Q.*+S.J #.'.i.G G G G G G }.*+1.H././.|.A.F.I.m.n.. . . . . .               . .               .                   ",
"    .     !+1.-.'.y.;.Y ;. .G G G G G G G ..e.U.`.O *+I.v.w.              . .   .         . .   . .     .   .             .     ",
"            z.Y ;.;.;.;.Y ,.G G G G G G )+~+B.J.J.=+w.n.  .       .       . .           . .                           .         ",
"            K X ;.;.;.-.{.` G G G G  .,+K.J..         .                     . .     . .                     . . . . .           ",
"          '+1.Y ;.;.;.;.Z G G G G y.C.L.. .                 .           . . . . . . .                   . .         .           ",
"        . R.6.X ;.;.;.Y 5.G G ,.A._.J..   .       . .   . . . .     . . . .       . . .   .     .                     .         ",
"    . . . K ;.;.;.;.-.h.G G  .{+B..         . . .   . .       . . . . .       .     .   . .   . .                               ",
". .     R.>+X ;.;.;.Y 5.G i.]+B.              . . .     .     .     . .   .       .                   .             . . . .     ",
". .   M.M X ;.;.;.;.Z G h.^+L..             . . . .         . .     . .           .             . .               .           . ",
". . . Q.y.;.;.;.-.{.` Z ^+L.. . .   . . . . . . . . .     . .     .   . .       .           . . . . . .                         ",
".   @+6.X ;.;.;.Y 5.,.{+B.        . .   .             . . .     .     .   . . .       . . . .                                 . ",
"  R.}.X ;.;.;.;. .G A.8.        . .                   . .           .                   . . .                                 . ",
"@+A.X ;.;.;.;.h.G >.P J.        .                   .     . .     . .         . .         . . .         . . . .     . . . . .   ",
"..;.;.;.;.-.{.,.G {+B.                            . .       . . . .           . .       .       .     .       .     .     . .   ",
";.;.;.;.;.X  .G )+P n.          .               . .   .       . .             . .       .         .             .             . ",
";.;.;.;.;.i.G G (.m.            . .           . .             . . . .   . . . . . .   .                 .       .               ",
";.;.;.;.Y 5.G 5.N.w.  . .   . .     . . . .   . . . .         .   . . . .         . . .             .             .             ",
";.;.;.-.i.G G h.P   .       .         . . . . . . . .   . . .       .               . .                                         ",
";.;.-.X 5.G G '.8..         .                           . .         .                 .               .             .           ",
";.X >. .G G G (.m..   . . .               .       .     .           .               .       .       . . . .   . .     .     . . ",
"5.5.` G G G t.I.w.. . .     .           . . .         .     .       .               .       .         . . . . . . . .   . .     ",
"h.` G ` i.,+I.L..             .       . .     . .   . .                           .           .                         .       ",
"@+F.z.k.u.f.=+                    . . .           . . . . .         . . .         .             .     .                   .     ",
"  J.L.L.w.                      . . .           . .                       .     .                                         .     ",
"    .                         . .   .           .                           .                     . .                           ",
"    .                       . .     . .         .                                                 . .                       .   "};
