/* XPM */
static char * player_XPM[] = {
"64 64 251 2",
"  	c #412B1D",
". 	c #3D291B",
"+ 	c #153608",
"@ 	c #388C16",
"# 	c #50CC20",
"$ 	c #5BE122",
"% 	c #58DC22",
"& 	c #43B21E",
"* 	c #37971B",
"= 	c #398114",
"- 	c #152D07",
"; 	c #2E7012",
"> 	c #5CD622",
", 	c #78F128",
"' 	c #7EF22B",
") 	c #81F32A",
"! 	c #7CF329",
"~ 	c #73F027",
"{ 	c #3F9E1C",
"] 	c #265D0E",
"^ 	c #342416",
"/ 	c #6FEC26",
"( 	c #88F42D",
"_ 	c #8DF52E",
": 	c #96F63C",
"< 	c #A4F751",
"[ 	c #91F534",
"} 	c #90F52F",
"| 	c #84F32A",
"1 	c #81F236",
"2 	c #9CF54A",
"3 	c #7CEF28",
"4 	c #4C8118",
"5 	c #94F45F",
"6 	c #90F53A",
"7 	c #B0F76A",
"8 	c #F3F9E8",
"9 	c #C8F6A0",
"0 	c #6DF026",
"a 	c #6EEA40",
"b 	c #5CE92A",
"c 	c #67EF2B",
"d 	c #8BEF2D",
"e 	c #6BE426",
"f 	c #EAFBCF",
"g 	c #C8F992",
"h 	c #72F038",
"i 	c #91F264",
"j 	c #59EB22",
"k 	c #82ED5B",
"l 	c #83F145",
"m 	c #8FEA2C",
"n 	c #3A5910",
"o 	c #0B1A04",
"p 	c #53C523",
"q 	c #9CF36D",
"r 	c #99F650",
"s 	c #6DF030",
"t 	c #62F024",
"u 	c #69EC36",
"v 	c #BAF975",
"w 	c #92F72D",
"x 	c #95DF29",
"y 	c #33520F",
"z 	c #5CEA21",
"A 	c #52E727",
"B 	c #4EE71E",
"C 	c #69ED24",
"D 	c #95F82E",
"E 	c #A6F569",
"F 	c #67F024",
"G 	c #5EED22",
"H 	c #61EE23",
"I 	c #76F32D",
"J 	c #9CF841",
"K 	c #7DE92A",
"L 	c #4CA21A",
"M 	c #48BF1E",
"N 	c #53E81F",
"O 	c #5DE733",
"P 	c #57E920",
"Q 	c #62E922",
"R 	c #AFF27C",
"S 	c #A0F83B",
"T 	c #5ACD22",
"U 	c #26440B",
"V 	c #48E61C",
"W 	c #7DEC4F",
"X 	c #49E71D",
"Y 	c #54E220",
"Z 	c #4EE41E",
"` 	c #8AF533",
" .	c #A3F036",
"..	c #98F633",
"+.	c #62C522",
"@.	c #162306",
"#.	c #41A21D",
"$.	c #AFF390",
"%.	c #A8EE8F",
"&.	c #76EB28",
"*.	c #7EE329",
"=.	c #6AD626",
"-.	c #53D321",
";.	c #3FBD1C",
">.	c #3AA61C",
",.	c #3DAE1C",
"'.	c #4ED01F",
").	c #C5F97E",
"!.	c #AEFA52",
"~.	c #598719",
"{.	c #49A920",
"].	c #7AEF46",
"^.	c #C9E9B9",
"/.	c #67EB23",
"(.	c #3A9B1C",
"_.	c #55BA21",
":.	c #6DC524",
"<.	c #3DA61D",
"[.	c #36961B",
"}.	c #36951C",
"|.	c #3CA91C",
"1.	c #46D71D",
"2.	c #BEF695",
"3.	c #D6FC8F",
"4.	c #B5FC47",
"5.	c #7BC826",
"6.	c #382618",
"7.	c #94F16B",
"8.	c #4EE01E",
"9.	c #399E1C",
"0.	c #5DC723",
"a.	c #68CF27",
"b.	c #41C31C",
"c.	c #B0FD30",
"d.	c #436613",
"e.	c #55D821",
"f.	c #5BE522",
"g.	c #49C51E",
"h.	c #47DC1D",
"i.	c #44A71E",
"j.	c #74D728",
"k.	c #45CC1D",
"l.	c #C8FA83",
"m.	c #8BF62B",
"n.	c #62CD24",
"o.	c #38991C",
"p.	c #65BF22",
"q.	c #99E92C",
"r.	c #83D427",
"s.	c #9FF12C",
"t.	c #3FB71D",
"u.	c #3AA11C",
"v.	c #A4FB2E",
"w.	c #BBFD40",
"x.	c #93F12C",
"y.	c #2D470D",
"z.	c #69CF44",
"A.	c #4FDB1F",
"B.	c #48E11D",
"C.	c #5BB321",
"D.	c #64DC24",
"E.	c #9FF931",
"F.	c #98F92C",
"G.	c #6CE034",
"H.	c #64E124",
"I.	c #42C91C",
"J.	c #BCF587",
"K.	c #44D21D",
"L.	c #3EB31C",
"M.	c #58961B",
"N.	c #A7F75A",
"O.	c #46B71F",
"P.	c #83DD29",
"Q.	c #5ABD22",
"R.	c #7DB627",
"S.	c #AFF962",
"T.	c #76CD26",
"U.	c #4AAE21",
"V.	c #52AD20",
"W.	c #61E422",
"X.	c #90DA3A",
"Y.	c #3BA31C",
"Z.	c #7CDC28",
"`.	c #91E94E",
" +	c #C6FC69",
".+	c #4EBA21",
"++	c #83E932",
"@+	c #4CC820",
"#+	c #42AC1E",
"$+	c #8AE22A",
"%+	c #4CC021",
"&+	c #71E426",
"*+	c #D8EFC1",
"=+	c #7BD855",
"-+	c #51B522",
";+	c #366311",
">+	c #5BC223",
",+	c #659D20",
"'+	c #1B420A",
")+	c #89C528",
"!+	c #9AF135",
"~+	c #21350A",
"{+	c #D0F9AA",
"]+	c #6CB750",
"^+	c #B9FB5E",
"/+	c #5BBA2E",
"(+	c #4A7016",
"_+	c #6BA820",
":+	c #B4FF2F",
"<+	c #B4FF36",
"[+	c #6FDC27",
"}+	c #46BB1F",
"|+	c #B0FB3D",
"1+	c #8BF258",
"2+	c #98D958",
"3+	c #AAFC31",
"4+	c #73C156",
"5+	c #34951A",
"6+	c #7AD545",
"7+	c #D2FD3D",
"8+	c #78C324",
"9+	c #489618",
"0+	c #8DF440",
"a+	c #BBFC4B",
"b+	c #E3FD4F",
"c+	c #C6FD5B",
"d+	c #5DB73B",
"e+	c #419D27",
"f+	c #5EE127",
"g+	c #62CA33",
"h+	c #DEFCA4",
"i+	c #9BD186",
"j+	c #62B147",
"k+	c #4EA734",
"l+	c #C6FB77",
"m+	c #41A124",
"n+	c #DAF9C3",
"o+	c #F8FAF5",
"p+	c #68DF38",
"q+	c #84E24B",
"r+	c #9DE562",
"s+	c #61D235",
"t+	c #9AD587",
"u+	c #84CC6B",
"v+	c #82D568",
"w+	c #7FC26B",
"x+	c #AAF387",
"y+	c #89EB33",
"z+	c #A4F376",
"A+	c #A8EE2D",
"B+	c #94D328",
"    .           . . .       .         .       .   + @ # $ $ $ % # & * = -                 . .         .                     . . ",
".           . .       . . .           . .     . ; > , ' ) ) ) ! ' ! ! ~ > { ]       . .                 . .                 . . ",
".     . . .           . .               . . ^ * / ( _ : < [ } } | ~ 1 2 ( ! 3 4   .                                         . . ",
"        .           . .     . . . . .   .   @ 5 : _ 6 7 8 9 ( ~ 0 a b c ' _ _ d 4                                       .       ",
"          .         . .     .             ] e < [ _ 2 < f 8 g h c i c j k l 6 } m n                                             ",
"          .       . .                 . o p ! ~ , _ ( ' 5 q r 1 s t t t u a v } w x y                                     . .   ",
". .         . . .   . .   .         . . ] z u A B C ~ 3 | D < < E ' F G H H I J D D K L -                   .                 . ",
"  . .       . .       .             . o M N O u j P , Q G h R 1 ( } ' P P H 0 7 S _ ( 0 T U   . .                               ",
"      . .   .           .         . o { j V A W B z | ' 0 G A X P / Q Y Z P , `  ..._ ( I +.@.                .             .   ",
"  .     . .             . .     . o #.c $.%.u X V z F F &.*.=.# > -.;.>.,.'.H ' 6 ).< C ` !.~.                              .   ",
"    .     . .             .   . o {.].h f ^.O V B z P /.p #.(.(._.:.<.[.}.|.1.P 2.3.4./.z 6 5.6.                                ",
". .           .   . . . . . . . @ s W t 7.a V B P 8.N '.9.[.[.(.0.a.{.* * [.9.b.W !.c.w ' / d d.              .               . ",
"  .             . .           - e.t H G B V B f.g.-.h.|.[.[.{ #.i.j.*.i.}.[.[.(.k.' D } l.2 m.5.o             . . . . .   . .   ",
"  .             .             @ t t t P X X f.p n.P k.(.o.p.q.x r.s.c.*.t.u.[.[.o.n.v.} : w.D x.y.                              ",
"  .                         o # t t G B V k z.M A.N B.|.C.s.q.3 D.C ~ D.Y 1.,.(.9.#.q.E., F.v.D ~.                              ",
". .             .           ] s 7.s N X V a G.Z X B.;.i.p.{.i.T % $ H $ H.F A.b.I.o.:.c.' ) v.w r.@.                . .         ",
"    .       .   .           L ` J.].B N X Q 0 P B.t.{ C.{.9.# 3 &.$ H t t 0 G 1.K.L.{.x.) ' w D } y .                     .   . ",
"    . .         .         - > _ [ ~ N C z P N X 1.{ { #.{ n.F Q Q H t t t t t P K.t.(.j.' ' x.) w ~..                     . .   ",
"        . .     . . .     M.J N.} C j ' C /.X X h.:.{.O.n.0.& <.<.& -.H t -.P.| Q n.(.Q.~ z | | J R.                      . .   ",
"      . . . . .       . ^ :.4.S.| N C , /.Q V X b.T.p.p U.o.u.|.(.T.P.3 F g.C. .~ / V.i.W.N w F.J X.o                   .       ",
"    . .                 @.a.E._ C B C / C N X V $ :.V.{ [.* >.Y.o.:.m _ 0 % #.Z.0 ~ :.o.-.P ! D w d y.                          ",
"        .           .   U `. +( N B z /.C X X N &.U.* [.[.(.o.[.* * #.Q.*.C & .+0 m.P.{.g.Y ~ m.} } n                           ",
"        .             . y.++: | N k W Y z X V e.=.& o.(.M e.|.[.* * [.}.{.e @+#+/ | $++..+1.~ 3 } } n                           ",
"          .             y K _ ( P $.^.p X X B.%+Z.U.* g.t # o.* * * * * }.& e.Y.&+Z.T.T O.I.0 ' } D n   . .             . .     ",
"        . .           . 4 ) } _ Q z.*+=+V X h.=.j.V.|.Y D.u.[.* * * * * [.U.e #+a.$+-+# b.b.H | _ w ~.    .                 .   ",
"  .   . . . . . .   . . ;+&._ } ~ # 9 E V V > n.#+o.I.H >+}.* * * * [.[.}.-+) p -+&.t.I.I.k.z ) ` S.,+    .                   . ",
"      .         . . . . '+W.| [ ) 8./ | B B.=.p & I.B.% #.[.* * * o.O.@+t.U.&.e.#+e g.;.I.k.N , 6 g )+6.. .                   . ",
"      .           . .   ;+3 [ 9 E B B Q X '.0.@+k.V X # #.[.* * [.u.$ t P M D.$ #+H.@+>.h.b.p !+: } P.~+.                   .   ",
"  . .   . . . .   .     ~.| [ {+v /.P 8.B.,.{ O.8.X B.n.U.o.{ * * Y.k.-.Y I.@+/.O.0.@+Y.h.L.]+^+..S d y                 . . .   ",
". .               .     ,+! ( s S 1 W.8.K.o.(.& h.X Z a.9.V.C.o.M L.9.,.t.I.M &.p >+%+|.B.;./+S 2 !...(+          . . . .     . ",
"  . .               . . _+, ( | 4.r T.=.t.[.o.,.B.X G 0.}.p.{.L.Y #+}.>.,.t.%+&.&.=.0.Y.1.B.W.m.| [ ^+(+    . . . .             ",
". . .                   P.~ F.c.:+F.m n.Y.[.o.#+Z X , _.o.:.{ k.C j.<.u.t.Y.#+d w e T o.I.1.~ m.' [ ..d.                      . ",
"                        &+) c.:+<+m.s.V.[.* [.C.Q V / U.{ T.#+Y , x.[+}+> n.U.|+E./ > #+K.k.3 , 1+2 F.(+      .             . . ",
"        . . .         . &+m.:+<+ +N.2+o.* [.<.>+Q V W.i.{.q.&+G / 0..+%+) =./+).7 h e e B.# 3 ! _ 3+E._+        .         . .   ",
"        . . . .   . . . +.) :+:+<+!.4+5+* [.& > f.X Y 9.{.3 | H N O.t.O.e g.6+3.2.O H ) P D., w v.7+3+8+                        ",
"                  .   . 9+0+w.:+:+x.i.[.* [.#+A.Z X A.9.i.Q F f.N b.,.b.;.O.K l.q N z ' Y [+/ | a+b+E.8+                  .     ",
"            .     .     M.l !.:+:+m {.(.* [.u.h.X X A.9.<.f.G g.-.Y ,.9.<.e.1+J.b N /.&+@+-./ w c+b+< 8+.     . .               ",
"      .                 9+0 D :+c+R d+e+[.[.u.h.X X A.9.{ &+j % O.$ f.-.f+5 J.g+B.8.e Q.>.1.! !.E.c+S.p.      .                 ",
"                    . . = ) F.a+f h+i+o.[.[.u.h.X X A.9.o.Z.H G % e.t t 5 2.X.;.B.k.[+{.>.Z ' ]., E.` p.    .                   ",
"    .           . .     n 3 F.4.h+f ^.j+e+[.(.1.B.V Y Y.}.p.D C ! ~ F F c ~ &.K.;.}+a.(.t./ m.N 2 ^+F.)+.   .             .     ",
"              . . .     ~+&+E.:+<+N.z.k+e+[.o.I.L.K.j @+o.#.s.w , , ! ) ~ % M u.* Q.-+o.e.m.) ( 3.!.F.~.              .         ",
"                    .   @.j.D |+4.( A.9.5+[.(.g.9.b.j G #+}.:.3+w F 0 x.>+<.* }.i.n.(.<.Q ( ) l+).w P.~+    . . . . .           ",
"          .         . .   C.( 3+|+[ g+o.j+e+9.-.9.t.P t %+}.{ Z.4.l+l+N.$ -.<.{ a..+[.M 0 | N.h+J w 8+6.. .         .           ",
"        . .           .   L m.c.3+: =+m+i+k+* '.& >.$ ~ $ Y.}.,.W n+o+9 c -.#+n.> & u.-.F ++3.c+_ w ,+                .         ",
"    . . .                 M.m.3+v.( P t.e+o.[.g.-.(.=._ ~ -.,.* & p+7.q c H G H % O.<.-.G [+6 : J d y                           ",
". .     .           .     d.w v.v._ C b.5+* [..+Q }+H.( ( , $ @+& #+'.H t t t t % #+9.$ z /./.6 J P.@..             . . . .     ",
". .   .                   y 3 E.3+} ! %+e+* [.U.D.z H ~ _ } , -.e.% -.e.% $ e.M 9.[.9.f+p @+/ } _ M.              .           . ",
". . . .                   ~+H.S.3.^+_ p #+|.}.#.0.e.t t ) } d Z.>+O.#+m+U.0.a._.o.* }+% {.-.) [ d y.. .                         ",
".       . . .             6._.r 3.h+v.W.L.b.u.* 0.z.a H F ! j.-+=.*.++q+&+K j.U.(.M # M j+7., [ $+-                           . ",
"              .   . .       = F D |+:+m.e.K.t.5+.+a.%+H t G / -+* {.Q.O.i.#.<.O.-.'.Y.9.]+$.~ 1 _+                            . ",
"              . .           ~+H.t 0 F...q k ]+[.{ =.U.% H z $ > }+Y.o.(.& -.% -.O.|.u.5+U.a F -.-       . . . .     . . . . .   ",
"            .   .             9+t s 6 [ N.< 6+I.|.{.{ O.% .+O.<.@+% % f+h e.<.9.,.}+m+{.[+! &.] .     .       .     .     . .   ",
"        . .     .             6.(.1+2._ _ _ 0+$.r+{.o.j+%+-.L.>.(.<.%+s+=+n.& K.I.k+d+++[ m.L     .             .             . ",
". .   . .                       o -+].) } _ 2 g 7 % k+e+* O.f+O k.>.|.k.b.'.Z k.9.o.U.d _ n.+           .       .               ",
"    . .           .   . .   . .   '+A.H ) } } } | b %.z.9.e+4+t+t.p 4+B.B.I.}+u+k+_.*.} | ;         .             .             ",
"    .               .       .       @ P ~ ...., 0 N u W v+i+(.e+{ 4+w+,.Y.* }.k+k++.....[+-                                     ",
". . .             .         .       '+Y z , ~ G N B P 2.x+].'.<.(.m+<.,.|.#.#.U.q+!+' | =             .             .           ",
". . .           . .   . . .         6.Q.G P H G B B B u c c 1+f+& & % u / y+`.&., ! D M.    .       . . . .   . .     .     . . ",
"    . .     . . . . . .     .         y $+G N P A k X j H h 7.h W Y i 2.9 {+9 7 N.: v.y     .         . . . . . . . .   . .     ",
"              . .             .       . n r., ~ /.A V N H ].k h %.j z+9 o+o+o+o+o+v R.6.      .                         .       ",
"      .                           . . .   @.~.q.F./.B A P j j N b , 0+0+9 8 o+o+{+ .y.          .     .                   .     ",
"    .                           . . .         ~+_+x.0+W N P X P ' _ 0+1+~ r 7 ^+ .(+                                      .     ",
"    .                         . .   .           . y 8+s.w m.| w 3+3+3+E.F.v.c.x d.                . .                           ",
"    .                       . .     . .         .   6.d.)+A+A+A+B+)+)+)+R._+~.~+                  . .                       .   "};
