/* XPM */
static char *_56_Dirt_Cracked_021729191765[] = {
/* columns rows colors chars-per-pixel */
"64 64 2 1 ",
"  c #412B1D",
". c #3D291B",
/* pixels */
"  .     ...   .    .   .                     ..    .          ..",
".     ..   ...     ..  .                  ..        ..        ..",
".  ...     ..       .....       .        .                    ..",
"    .     ..  ..... .  ...  ..         ..                   .   ",
"     .    ..  .                       .                         ",
"     .   ..        .     ...   .    ...                      .. ",
"..    ... .. .    ..        ..     .   ..             .        .",
" ..   ..   .      .     ..    .   .  .   ..    ..               ",
"   .. .     .    ...   ..       ..       ..            .      . ",
" .  ..      ..  .    .        .. ..     .                     . ",
"  .  ..      . ..     ..     ..    .       .                    ",
"..     . ........      ..   ..      ..    .            .       .",
" .      ..      .      .....        .   .    .         ..... .. ",
" .      .              . ..        .   .      ..                ",
" .               .    .... .      .    .                        ",
"..      .        ..   ..          .    ..   .             ..    ",
"  .   . .        ...        .           .         .          . .",
"  ..    .       .  ..        .....      .         .          .. ",
"    ..  ...    .    .       ..   ..      ..                  .. ",
"   .....   ....            ..  .  ..   .. ..     .          .   ",
"  ..        ...       .   ..       .  ..    .                   ",
"    .     .  ..       ......... . ....       .... .             ",
"    .      .  .      ..    .      ........   ..   .             ",
"     .      . ...   ..    .         .   .....       ..      ..  ",
"    ..     ...  .. ...    .         .     .  ..      .        . ",
" . ...... ...... ....     .         .        ..      .         .",
"   .    .......  .  .               .         .     ..         .",
"   .     .. .      ..      .       .. ...     .     .         . ",
" .. .... .  .. .  .....    ..     ... .........             ... ",
"..       .       ...   .......   ..        .....         ....  .",
" ..       ...  ... .         ... .  .             .   ....      ",
"...         .....  .  .       ....         .      ..           .",
"            ..     ..        .  ..         .     .     .      ..",
"    ...    ..     ....       .    ..    ..      .       .    .. ",
"    .... ...     ..   .   .. .     .........   ..               ",
"         . .   ...    ...... .  .   ..     .....             .  ",
"      .  .  ....      ..   . ..   . .       ..  .  ..  ..       ",
"   .        ....      ..     ....   .         .        .        ",
"          ...  ..      ...............       ..       .         ",
"  .     ..      ..    ..    .        .. .    .. ..  . .      .  ",
"       ...       ..   ..     .   .   ..     ..             .    ",
"          .       .....    .          ..  ..          .....     ",
"     .    ..       ...        .     .......         ..    .     ",
"    ..     . .. .... .   .. ....  ....   ... .  .          .    ",
"  ...           ..    ... ..   .....   .  . .. ..               ",
"..  .     .  . .       ...  .  .  .. .   .         .      ....  ",
".. .          ..      ....    ..  ..     .      ..       .     .",
"....         .... .........  ..  . ..   .     ......            ",
".   ...          .. .      ...  .  . ...   ....                .",
"       . ..     ..         ..     .         ...                .",
"       ..       .         .  ..  ..    ..    ...    ....  ..... ",
"      . .                ..   ....     ..   .   .  .   .  .  .. ",
"    ..  .       .       .. .   ..      ..   .    .      .      .",
".. ..           ..     ..      .... ...... .        .   .       ",
"  ..     . .. ..  .... ....    . ....    ...      .      .      ",
"  .       .   .    ........ ...   .       ..                    ",
"...      .    .             ..    .        .       .      .     ",
"...     .. ...       .   .  .     .       .   .   .... ..  .  ..",
"  ..  ......  .     ...    .  .   .       .   .    ........ ..  ",
"       ..      .   ..  .. ..             .     .            .   ",
"   .             ...     .....    ...    .      .  .         .  ",
"  .             ...     ..           .  .                    .  ",
"  .            .. .     .             .          ..             ",
"  .           ..  ..    .                        ..           . "
};
