/* XPM */
static char * player_XPM[] = {
"64 64 197 2",
"  	c #412B1D",
". 	c #3D291B",
"+ 	c #7F7C78",
"@ 	c #C9BFB6",
"# 	c #D3C9BE",
"$ 	c #ABA39C",
"% 	c #6E8D98",
"& 	c #8BB4C6",
"* 	c #7796A5",
"= 	c #6E8481",
"- 	c #B1A8A0",
"; 	c #A59C95",
"> 	c #82A6B6",
", 	c #9ECDE2",
"' 	c #68828E",
") 	c #89837E",
"! 	c #BBB3A9",
"~ 	c #98A3A4",
"{ 	c #768281",
"] 	c #83A9BA",
"^ 	c #95C0D3",
"/ 	c #8FB8CA",
"( 	c #6E929A",
"_ 	c #A1D1E7",
": 	c #7D9EAD",
"< 	c #979691",
"[ 	c #85BEBF",
"} 	c #70999B",
"| 	c #7FA2B2",
"1 	c #A4D5EB",
"2 	c #9BC9DE",
"3 	c #91B7C7",
"4 	c #688991",
"5 	c #95AEA9",
"6 	c #BBC2BF",
"7 	c #8FAAB3",
"8 	c #8A9596",
"9 	c #999A96",
"0 	c #A19F9D",
"a 	c #50626B",
"b 	c #BDBDBD",
"c 	c #F2F2F2",
"d 	c #FFFFFF",
"e 	c #BBBBBB",
"f 	c #869DA6",
"g 	c #7D98A4",
"h 	c #848682",
"i 	c #656D70",
"j 	c #EFEFEF",
"k 	c #DADADA",
"l 	c #83A8B8",
"m 	c #B4AEA6",
"n 	c #ABA79E",
"o 	c #A7A09A",
"p 	c #B1AAA2",
"q 	c #D6D6D6",
"r 	c #C2C2C2",
"s 	c #FEFEFE",
"t 	c #9D9D9D",
"u 	c #8DB4C6",
"v 	c #CDC3B9",
"w 	c #EBEAEA",
"x 	c #B6B3B1",
"y 	c #FCFCFC",
"z 	c #F5F5F5",
"A 	c #A4A8A8",
"B 	c #BBBBB9",
"C 	c #FAFAFA",
"D 	c #CCCCCC",
"E 	c #DDDDDD",
"F 	c #9A948E",
"G 	c #E3E3E3",
"H 	c #6F6E6D",
"I 	c #A7A7A7",
"J 	c #978F88",
"K 	c #D7D7D7",
"L 	c #C6C6C6",
"M 	c #A29B93",
"N 	c #C3BAB1",
"O 	c #C0B6AD",
"P 	c #ABABAB",
"Q 	c #E7E7E7",
"R 	c #6B7274",
"S 	c #A6A6A6",
"T 	c #B1B1B1",
"U 	c #7D7266",
"V 	c #909888",
"W 	c #96A495",
"X 	c #A2A2A2",
"Y 	c #756663",
"Z 	c #7C7F7E",
"` 	c #D0D0D0",
" .	c #D5D5D5",
"..	c #E2E2E2",
"+.	c #7E8B90",
"@.	c #C1C0C0",
"#.	c #B0B0B0",
"$.	c #CBCDCC",
"%.	c #92A296",
"&.	c #75A6A8",
"*.	c #D4D4D4",
"=.	c #C6C7C6",
"-.	c #9DBCBD",
";.	c #91D5D6",
">.	c #8AC9CB",
",.	c #B1C4C5",
"'.	c #8CCDCE",
").	c #92D6D8",
"!.	c #78A9AB",
"~.	c #B8C9C9",
"{.	c #88C5C7",
"].	c #999999",
"^.	c #719EA0",
"/.	c #8FD1D3",
"(.	c #D8D8D8",
"_.	c #9EB8B9",
":.	c #7EB5B6",
"<.	c #78ABAC",
"[.	c #B6B6B6",
"}.	c #ABB4B4",
"|.	c #82B5B4",
"1.	c #A8BFAC",
"2.	c #8BADA3",
"3.	c #A5B5A7",
"4.	c #BCD5BF",
"5.	c #574A34",
"6.	c #C1C1C1",
"7.	c #AEC6B2",
"8.	c #BDD7C0",
"9.	c #B9D2BC",
"0.	c #86A9A0",
"a.	c #5F5036",
"b.	c #675535",
"c.	c #6D5936",
"d.	c #725D37",
"e.	c #766039",
"f.	c #6A5737",
"g.	c #B4B4B4",
"h.	c #678F8F",
"i.	c #796239",
"j.	c #705B37",
"k.	c #6E5A38",
"l.	c #7E7A75",
"m.	c #7FAEAB",
"n.	c #6F9E9F",
"o.	c #6F826A",
"p.	c #B8B261",
"q.	c #847B3F",
"r.	c #5C4E34",
"s.	c #695738",
"t.	c #7B633A",
"u.	c #745E38",
"v.	c #635234",
"w.	c #594C34",
"x.	c #AEB8B0",
"y.	c #B5CDB8",
"z.	c #4D5344",
"A.	c #332714",
"B.	c #524121",
"C.	c #BDA543",
"D.	c #96813A",
"E.	c #5C4D32",
"F.	c #605137",
"G.	c #705C39",
"H.	c #7D8D80",
"I.	c #94A797",
"J.	c #9CB7A7",
"K.	c #2F302C",
"L.	c #645335",
"M.	c #3E3E30",
"N.	c #B9B9B9",
"O.	c #A0B6A3",
"P.	c #594E3C",
"Q.	c #8E8E8E",
"R.	c #879889",
"S.	c #9AAF9E",
"T.	c #564830",
"U.	c #8C9E8F",
"V.	c #A2B7A5",
"W.	c #60523A",
"X.	c #2F3132",
"Y.	c #333435",
"Z.	c #363739",
"`.	c #313234",
" +	c #5D5E5F",
".+	c #333536",
"++	c #695F50",
"@+	c #ABAAA7",
"#+	c #303132",
"$+	c #242526",
"%+	c #171818",
"&+	c #474849",
"*+	c #161617",
"=+	c #141415",
"-+	c #0F0F0F",
";+	c #5D4E37",
">+	c #675536",
"    .           . . .       .         .       .           + @ # # # $                     . .         .                     . . ",
".           . .       . . .           . % & * . = %         - # # # ;               . .                 . .                 . . ",
".     . . .           . .               . > , > ' &         ) ! @ ~ {             .                                         . . ",
"        .           . .     . ' ] ^ ^ / ( ( , _ & , :   . . < - < [ }         . .                                       .       ",
"          .         . .     .     | , 1 _ ^ _ 2 3 3 3 4           5 6       .                                                   ",
"          .       . .               > _ 1 , 7 8 9 0 8 4 a     . b c d e . . .                                             . .   ",
". .         . . .   . .   .     * : ] _ _ 7 0 f f f g h i .       j d k       . .                           .                 . ",
"  . .       . .       .   % l ^ _ 1 1 1 3 m ~ 8 n 0 o p q e .     r s c t .       . .         . .                               ",
"      . .   .           . : u ^ _ 1 1 _ ~ v m o w c x p y z t   . . w d r         . .                         .             .   ",
"  .     . .             . .     | 2 1 2 A # @ B d d q 9 C y e .   . D d E       .                                           .   ",
"    .     . .             .   . . / 1 2 A # v x s d w F G B H       I z z I           .                                         ",
". .           .   . . . . . . . | , 1 , ~ # # p G q h o o J +         K d L         .                         .               . ",
"  .             . .           > , 1 1 1 7 @ v o M p o N O F +         P C Q     .         .                   . . . . .   . .   ",
"  .             .           R : u / ^ 1 3 m v o M p @ # p J )         . E C S .             . .                                 ",
"  .                               . : _ ^ 0 # v @ o M n O @ -       .   T y D .                                                 ",
". .             .                 % 2 1 7 N # ! J U M V W p F       .   X c w . .       .                           . .         ",
"    .       .   .               a l u / f O @ J Y O p h n m Z         L c d z t .                   .                     .   . ",
"    . .         .               .     . 3 7 8 J M @ V m # v < . I ` c d d G T   .                   .                     . .   ",
"        . .     . . .         .       ' | * g n n m ! # @ m 0  .z d C ..e         . .                                     . .   ",
"      . . . . .       . . . .               ] +.p v @ m B E C d C k P .       . .   . .           .                     .       ",
"    . .                 . . .               .   R 9 @.Q d d C E #.    .     . .         .                                       ",
"        .           .     . .               . I ` Q d d z $.%.  .   . . . .               . . . .   .                           ",
"        .             .     .             . . G d d z q 5 [ &.      . . . . . . . .       . .       .                           ",
"          .             .   . . .       . .   *.d G B =.-.;.>.          .       . . . . .               . .             . .     ",
"        . .           . . .     . .   . . . b =.c z $.j ,.'.).!.        .           .     . .             .                 .   ",
"  .   . . . . . .   . . . . . .   . . . . r C G $.z =.d ~.'.).{.        .                 . .             .                   . ",
"      .         . . . . . . .     .     ` y Q P ].w @.q ~.>.;.;.^.      .                   .           . .                   . ",
"      .           . .   .             K y  .      ..j @.,.'.;.).[     . .   . . .           .           .                   .   ",
"  . .   . . . .   .     . .   .     k C L . .     D $.Q ,.'.;.;./.( . . .   . . . . . . . . .                           . . .   ",
". .               .               (.C r       . . T @.C _./.;.;.).:..                 . . . . .                   . . . .     . ",
"  . .               . . .     . ` C e .           X =.j 7 ;.;.;.;.'.%   .                           .       . . . .             ",
". . .                   . . . S C D   .     .     S $.q [ ).;.;.;.).<.                .             . .                       . ",
"                        . .   S z [.  . .         P $.}.{.).;.;.;.).>.                .           .           .             . . ",
"        . . .         . .       j (.. . . .       e E 8 {.).;.;.;.;.;.!.        . .             .               .         . .   ",
"        . . . .   . . .         k w .       .     D j W |.).;.;.;.;.).{.. . . . . . . .       . .                               ",
"                  .   .       . r C S       . . . K $.1.2.'.;.;.;.;.;./.( .           . . . . .                           .     ",
"            .     .     . . . . I C D       . .   E 3.4.1.|.).;.;.;.;.).:.              . .     .     . .   5.. .               ",
"      .           P 6.` 6.#.. .   G w       . . e 6 7.8.9.0./.;.;.;.;.;.'.=                 .       a.b.c.d.e.f.                ",
"            [.k c y d d d y c K X g.q {       . B 3.4.4.8.5 [ ).;.).).;.{.h.              . a.f.d.e.i.i.e.j.e.k.                ",
"    .   S E y d d y y s d d d d C E }.Z ) l.. g.3.9.4.4.8.7.m././.>.n.o.p.q..   .   r.s.c.e.t.i.u.k.v.w..   k.j.          .     ",
"      T z y w =.x.x.x.B 6 =.E j C y C w x h 9 3.y.8.4.4.4.4.0.>.n.z.A.B.C.D.E.F.f.u.i.t.i.j.b.r.            G.d.      .         ",
"    [.j k P       H.I.1.y.7.3.3.x.x.x.x.3.3.7.4.4.4.4.4.4.8.J.4 K.A.B.d.d.u.i.t.t.i.d.L.w.                  G.e.. . .           ",
"  I E #.  .         . . I.y.8.4.9.9.9.9.4.8.8.4.4.4.4.4.4.8.1.M.B.d.t.t.t.t.e.c.v.w..                   . . G.e.    .           ",
"  N.    . .           .   = O.9.8.4.4.4.4.4.4.4.4.4.4.4.4.8.7.z.u.t.t.t.e.f.P.    . . .   .     .           b.i.w.    .         ",
"Q.Q.. . .                     R.1.4.8.4.4.4.4.4.4.4.4.4.4.8.S.F.e.t.t.k.P.    .     .   . .   . .           L.i.T.              ",
"P..     .           .     .   .   %.7.4.8.4.4.4.4.4.4.8.4.O.  . f.t.i.w.  .       .                   .     s.i.T.  . . . .     ",
". .   .                     . .       %.1.y.4.8.8.8.4.7.%.  . . s.t.e..           .             . .         v.i.T..           . ",
". . . .                   . . . .   . . . = U.S.V.S.U.    . .   k.t.j.. .       .           . . . . . .     v.i.r.              ",
".       . . .                     . .   .             . . .     d.t.f..   . . .       . . . .               L.i.W.            . ",
"              .   . .     X.Y.Z.`..                   . .     5.e.i.a.                  . . .               L.i.W.            . ",
"              . .       Y.Z.Z.Z. +                  .     . . F.t.e.5.        . .         . . .         . . b.u.a.  . . . . .   ",
"            .   .     .+Z.Z.Z.Z.B K               . .       . f.t.j.          . .       .       .     .     ++M l.  .     . .   ",
"        . .     .   .+Z.Z.Z.Y.X.+ ..@+          . .   .       u.t.L.          . .       .         .         + G b     Y.#+`.`.#+",
". .   . .         `.Y.`.#+      . . U j.      . .           P.e.i.r..   . . . . . .   .                 .     L Z `.Z.Z.Z.$+%+  ",
"    . .           .   . .   . .     c.t.j..   . . . .       F.t.u.. . . .         . . .             .         &+Z.Z.Z.K.*+=+    ",
"    .               .       .       r.u.t.j.5.. . . .   . . f.t.c.  .               . .                       Z.Z.Z.$+-+        ",
". . .             .         .         ;+u.t.d.w.        . . d.t.v.  .                 .               .       Z.K.*+=+          ",
". . .           . .   . . .             w.d.t.u.a..     . W.i.e.5.  .               .       .       . . . .   $+%+    .     . . ",
"    . .     . . . . . .     .           . . j.t.e.v.  .   f.t.c.    .               .       .         . . . . . . . .   . .     ",
"              . .             .       . .     c.t.i.b..   u.t.F.                  .           .                         .       ",
"      .                           . . .         b.i.t.>+E.t.u.      . . .         .             .     .                   .     ",
"    .                           . . .           . v.e.i.u.t.f.            .     .                                         .     ",
"    .                         . .   .           .   ;+j.t.e.P.              .                     . .                           ",
"    .                       . .     . .         .       >+L.                                      . .                       .   "};
