/* XPM */
static char *_56_Brick_051729191336[] = {
/* columns rows colors chars-per-pixel */
"64 64 9 1 ",
"  c gray29",
". c #606060",
"X c gray33",
"o c #646464",
"O c #686868",
"+ c #444444",
"@ c gray36",
"# c gray42",
"$ c #717171",
/* pixels */
"X++X@@@+X$####@@@X@@O##X+  +++++ +++++++++ X@@@@ + @@@@  #O@@@.#",
".XX..oo .#O##.oO###o.ooX+              +XoOO####OooooOoX.OOo....",
"....@.oXoOOOo@oOOOOo..OX+               o#OOOOOOOOo..OOX.OOOo.@.",
"....@oO @o.o..oOOOo...oX+              +.OooOOOOOOOo.OOX.#OOOo..",
"...@.ooXX.@...OOOOo....X+             ++.o.ooOOOOOOo.oOX.OOOOOoo",
"o....o. @....ooooo....o@+             ++@ooooOOOOO...@OX.OOOOoOO",
"..X....X@o............o@+            +  @.o.o.........oX@o....oo",
"X + XXX+ XXXXXX@XXXX@@X+++++++++++++++++X@XXXXX@XXXXXXX+ XXX@XXX",
"+  +XXX+ X XXX.  XXX+ X.oX+   X+Xoo.o.o.@ooooO@+ ...XXX...ooooX+",
"@$oO$$$##$###$$@X$$$oo$$$+X#Oo#X@$##########$$$X.$$##$$$$$$$$$$X",
".OOOOoO..OO...O@X.@.OOooOX+oOooXX@@.@@@@.oooooOX@Oo.ooOoOoOoooOX",
".OOOOOOooOOOOO#@Xo@.....oO X#O#XX..oOOOOOOOOOO#@@#OOOOoooOOOoO#.",
".#OOOOo...OOOO#@ O.@........OO#X@.@.oOOOOOOOOO#.@#OOOoo..o...o#X",
"Xooooo.@..ooOO#@ OO.....ooooo.  X..oooooOOooooOX@#OOOo.....oooo@",
" @...........@@X ............X@X .@@@@@XXX...@ +X..............@",
"+@@@@@XXXXX +++++ XXXXX@XXXX +X +X@XX@XXXX  +++++ XX@@X@@@@@@@@ ",
"++++  ++ XX..@.@....XX.+X....XXX+++++++++X.@.X++ X@ +XX+++    ++",
"       +@$#######$OooO$ .$######@ +XX X X####$@XOO#oX o +       ",
"        .ooOOOOOoOo@@oOX.OoOOOOOO#X+@o#X@OoOoOO.@.@@...X+       ",
"       +@..o.OOOOo...o#X.oOOOOOOOOOoOO#XoOOOOOo...ooo..X+       ",
"        X..ooOOOO.@.@.O @.oooOOOOOO#OO#X.#OOOo...ooOo@.X+       ",
"       +@.@o.oOOO.@.oOo++ ....oooooooooX OOooo..@..oooOX+       ",
"       +@.....oo....oo.+X@............oX X @@.....o...oX        ",
"++++++++ XX@XXXX@@@@XXX+ XX@@@@@@XXXXX ++@ +++ @@XX@@XX+++++++++",
" XXXXX@. ++++++++ +   ++++++++++ XX X.@@ ++ XX + ..XX.@@.XXXXXX+",
".####oOo +++X X +              +XOOO###OoX@ooo.+@##ooOOoOO#####@",
".OOOOooOo...ooOX+              +X.@..oOoO#OO.@. @Oo@@@@@@@oOOOO.",
".OOOOOOOO#oo.oOX+      X       +X..o.OOOOOOOOoo .OO...o..oOOOO#@",
".OOOOOOOOO.ooO#@+              +Xo...OOOOOOOOO# @#OO@.oo.oOOOO#X",
"@OOOOo.ooooooOoX++             +XOo..oOOOOOOOoo +.Oo...o..ooooOX",
"Xo...........@X+++             +X......@.......X+ @............X",
" XXXXX@@@XXXXX +++++++++   ++++++XXXX@XXXXXX X ++++ XXXX@@XXXXX+",
"@XXXX+++Xo.XXo@ +.ooooo ++++@oooo@+XX++++X.o@XXXoo..ooX + Xo@XX@",
"$$$$#. +o$$$$$$#@#$$$$$X  +X$$$#$$ Xo@X+.$######$$$$$$$.+ $$$$$$",
"ooooooo @ooooooo.@.oooOXX#@+Xoo.oo@++XX o.@@@..ooOooooO@ XXOoooo",
"OOOOOO# X#OOOOOOOOOOOO#@X@X@XoOOOO.X .. o#ooOooo.OOOOO#X@#.OOOOO",
"OOOOOO# X#OOOOOOOOOOOO#@X@O##OOOOOO.XOo oOOOOo..oOOOOO#XX#OOOOOO",
"OOOOOOO X#OOOOOOOOOOOO#@X#OOOOOOOOOo .o+.#OOOoOOOOOOOO#XX#OOOOOO",
"@.....o Xo.......oOOOO#X #o........@ XX+@Oooo.oOooooooOX@OoooX X",
"++ XXX ++XXXX@@@@XXXXXX +X@@@@@@@XX XXX+ XXXXX  X XXXX@+X@XXX ++",
"+XXXXXX@XXXX  ++++++++++++ + +++ .X  XX@@@XX@@@X++++++++++ +++++",
" $$$$$$$$$$$$# +++++           ++o$##$$$$$$$$$$O+               ",
"X.@.@@@ooOOoOOO ++              ++@@@@@.@.oOOO#X+              +",
" @......oOOOOO#X+              ++ ......OOOOOO# +               ",
"  @....oOOOOOO#X+              ++X.....@oOOOOO#@+               ",
"X. @oo.oooooooOX+              ++@.....oooooo.@X+               ",
"Xo@Xo..........X+              ++X@.....o...X+++                ",
" X  XXXXXXXXX  ++++++++++++++++++   XXXXXXXX++++++++++++ ++ ++++",
"#oX@  OX @X.#OOO####@ X+oOOOOOOOOOooO#@+ @OO#O#O@@@@@@X+ .######",
"###Oo@X @#O########O..@ @...........O## @$#####OO##O### X$OO####",
"OOO.@.. @.@oOOOOOoO.@.@ @.@...@....@ooO XooOOOooooo@.OO X#ooOooO",
"....oooX@oo.....OOOo..@ @............oo @oOOoooooooooo. @ooOOOoo",
"..@...oX.#o...@ooOOOO.@ @.............o @.oooooooOoO... @X.#OOo@",
".......  .Oo..@.o.ooo.@ @............@. @.oOOOOOoooOOoOX@+XOoo@.",
"...XXX ++  @.........@ + .............@+@...oooooooo..o   X.....",
"@X ++++++X  @@@@@XXXX ++ XXXXXX@@XXXXX++ @@XXXX@@XXXXX ++++XXXX@",
"+++++++++ +++++++@ooXXo.ooo@Xo.++X@ooXXoXX @oo.++XXX XX@ooX+XX +",
"+              + ##.o####$$$$$$@X$########@o### X###@@O##ooXX.o ",
"               +X@@@@@@@.oooooO@@Oo.@@@@@@.@@@.XX.@@@.@@@@@@X@.@",
"               +@o@....oOOOOOO#@@#OOo.....@.OOo X..............X",
"               +Xo@...OOOOOOOO#X@#OOOOo....oOO#XX..............X",
" +  +  +        Xo@.ooooooooooO@Xooooo......oo@+Xo.............@",
"          +    +X.............@+   X.........X   ..............@",
"++++++++++ ++  + XXXX XXXXXXX +++  XX XXXXXXX XX+XXXXXXX XXXXXX "
};
